<?xml version="1.0" encoding="utf-8"?>
<!-- Generator: Adobe Illustrator 16.0.0, SVG Export Plug-In . SVG Version: 6.00 Build 0)  -->
<!DOCTYPE svg PUBLIC "-//W3C//DTD SVG 1.1//EN" "http://www.w3.org/Graphics/SVG/1.1/DTD/svg11.dtd">
<svg version="1.1" id="Calque_1" xmlns="http://www.w3.org/2000/svg" xmlns:xlink="http://www.w3.org/1999/xlink" x="0px" y="0px"
	 width="9.543px" height="9.583px" viewBox="0 0 9.543 9.583" enable-background="new 0 0 9.543 9.583" xml:space="preserve">
<circle fill="#373E4D" cx="4.771" cy="4.791" r="4.792"/>
<g>
	<path fill="#FFFFFF" d="M6.019,8.273H3.526c-0.468,0-0.848-0.38-0.848-0.847v-5.27c0-0.468,0.38-0.848,0.848-0.848h2.492
		c0.467,0,0.847,0.38,0.847,0.848v5.27C6.865,7.894,6.485,8.273,6.019,8.273z M3.526,1.509c-0.357,0-0.648,0.29-0.648,0.648v5.27
		c0,0.356,0.291,0.647,0.648,0.647h2.492c0.357,0,0.647-0.291,0.647-0.647v-5.27c0-0.358-0.29-0.648-0.647-0.648H3.526z
		 M6.019,7.917H3.526c-0.271,0-0.492-0.22-0.492-0.49v-5.27c0-0.271,0.221-0.491,0.492-0.491h2.492c0.27,0,0.49,0.22,0.49,0.491
		v5.27C6.509,7.697,6.288,7.917,6.019,7.917z M3.526,1.864c-0.162,0-0.293,0.132-0.293,0.293v5.27c0,0.16,0.131,0.292,0.293,0.292
		h2.492c0.16,0,0.291-0.132,0.291-0.292v-5.27c0-0.161-0.131-0.293-0.291-0.293H3.526z"/>
	<path fill="#FFFFFF" d="M5.802,6.339h-2.06c-0.278,0-0.505-0.227-0.505-0.505V2.541c0-0.278,0.227-0.505,0.505-0.505h2.06
		c0.277,0,0.504,0.227,0.504,0.505v3.293C6.306,6.112,6.079,6.339,5.802,6.339z M3.742,2.235c-0.169,0-0.306,0.137-0.306,0.306
		v3.293c0,0.169,0.137,0.306,0.306,0.306h2.06c0.168,0,0.306-0.137,0.306-0.306V2.541c0-0.169-0.138-0.306-0.306-0.306H3.742z"/>
	<path fill="#FFFFFF" d="M4.772,7.716c-0.311,0-0.563-0.253-0.563-0.563s0.252-0.563,0.563-0.563c0.31,0,0.562,0.253,0.562,0.563
		S5.082,7.716,4.772,7.716z M4.772,6.79c-0.201,0-0.364,0.163-0.364,0.363s0.163,0.363,0.364,0.363c0.199,0,0.363-0.163,0.363-0.363
		S4.972,6.79,4.772,6.79z"/>
</g>
</svg>
